<svg width="64" height="64" viewBox="0 0 64 64" fill="none" xmlns="http://www.w3.org/2000/svg">
<g clip-path="url(#clip0_1_7)">
<path d="M0 26C0 16.8991 0 12.3487 1.77114 8.87265C3.32909 5.81502 5.81502 3.32909 8.87265 1.77114C12.3487 0 16.8991 0 26 0H38C47.1009 0 51.6513 0 55.1273 1.77114C58.185 3.32909 60.6709 5.81502 62.2289 8.87265C64 12.3487 64 16.8991 64 26V38C64 47.1009 64 51.6513 62.2289 55.1273C60.6709 58.185 58.185 60.6709 55.1273 62.2289C51.6513 64 47.1009 64 38 64H26C16.8991 64 12.3487 64 8.87265 62.2289C5.81502 60.6709 3.32909 58.185 1.77114 55.1273C0 51.6513 0 47.1009 0 38V26Z" fill="url(#paint0_linear_1_7)"/>
<path d="M36.8335 46.7585V22.036H45.4606V26.7359H45.7182C46.1688 24.9976 46.8824 23.726 47.8588 22.9212C48.846 22.1165 49.9995 21.7141 51.3194 21.7141C51.7056 21.7141 52.0866 21.7463 52.4621 21.8107C52.8484 21.8643 53.2186 21.9448 53.5727 22.0521V29.633C53.1328 29.4828 52.5909 29.3701 51.9471 29.295C51.3033 29.2199 50.7506 29.1824 50.2892 29.1824C49.4201 29.1824 48.6368 29.3809 47.9393 29.7779C47.2526 30.1642 46.7107 30.7114 46.3137 31.4196C45.9167 32.1171 45.7182 32.938 45.7182 33.8822V46.7585H36.8335Z" fill="white"/>
<path d="M34.3145 12.25L23.6916 51.7159H16.1589L26.7819 12.25H34.3145Z" fill="white"/>
<path d="M8.8194 47.2736C7.57469 47.2736 6.50703 46.839 5.61642 45.9699C4.73654 45.09 4.30196 44.0223 4.31269 42.7669C4.30196 41.5436 4.73654 40.4974 5.61642 39.6283C6.50703 38.7591 7.57469 38.3246 8.8194 38.3246C9.99973 38.3246 11.0406 38.7591 11.9419 39.6283C12.854 40.4974 13.3154 41.5436 13.3261 42.7669C13.3154 43.6038 13.0954 44.3657 12.6662 45.0524C12.2477 45.7284 11.7005 46.2703 11.0245 46.6781C10.3485 47.0751 9.61344 47.2736 8.8194 47.2736Z" fill="white"/>
</g>
<defs>
<linearGradient id="paint0_linear_1_7" x1="64" y1="32" x2="0" y2="0" gradientUnits="userSpaceOnUse">
<stop stop-color="#0F0F0F"/>
<stop offset="1" stop-color="#303030"/>
</linearGradient>
<clipPath id="clip0_1_7">
<rect width="64" height="64" fill="white"/>
</clipPath>
</defs>
</svg>
