<svg width="512" height="512" viewBox="0 0 512 512" fill="none" xmlns="http://www.w3.org/2000/svg">
<g clip-path="url(#clip0_1_4)">
<path d="M0 208C0 135.193 0 98.7898 14.1692 70.9812C26.6327 46.5202 46.5202 26.6327 70.9812 14.1692C98.7898 0 135.193 0 208 0H304C376.807 0 413.21 0 441.019 14.1692C465.48 26.6327 485.367 46.5202 497.831 70.9812C512 98.7898 512 135.193 512 208V304C512 376.807 512 413.21 497.831 441.019C485.367 465.48 465.48 485.367 441.019 497.831C413.21 512 376.807 512 304 512H208C135.193 512 98.7898 512 70.9812 497.831C46.5202 485.367 26.6327 465.48 14.1692 441.019C0 413.21 0 376.807 0 304V208Z" fill="url(#paint0_linear_1_4)"/>
<path d="M294.667 374.068V176.288H363.685V213.887H365.745C369.35 199.98 375.059 189.808 382.87 183.37C390.768 176.932 399.996 173.713 410.554 173.713C413.645 173.713 416.692 173.97 419.697 174.485C422.787 174.915 425.748 175.558 428.581 176.417V237.064C425.062 235.862 420.727 234.961 415.576 234.36C410.426 233.759 406.005 233.459 402.313 233.459C395.36 233.459 389.094 235.047 383.514 238.223C378.02 241.313 373.685 245.691 370.509 251.357C367.333 256.937 365.745 263.504 365.745 271.058V374.068H294.667Z" fill="white"/>
<path d="M274.516 98L189.532 413.727H129.271L214.255 98H274.516Z" fill="white"/>
<path d="M70.5552 378.189C60.5976 378.189 52.0563 374.712 44.9314 367.759C37.8923 360.72 34.4157 352.179 34.5016 342.135C34.4157 332.349 37.8923 323.979 44.9314 317.026C52.0563 310.073 60.5976 306.596 70.5552 306.596C79.9979 306.596 88.3246 310.073 95.5353 317.026C102.832 323.979 106.523 332.349 106.609 342.135C106.523 348.831 104.763 354.925 101.33 360.419C97.9818 365.827 93.6038 370.162 88.1958 373.424C82.7877 376.601 76.9076 378.189 70.5552 378.189Z" fill="white"/>
</g>
<defs>
<linearGradient id="paint0_linear_1_4" x1="512" y1="256" x2="0" y2="0" gradientUnits="userSpaceOnUse">
<stop stop-color="#0F0F0F"/>
<stop offset="1" stop-color="#303030"/>
</linearGradient>
<clipPath id="clip0_1_4">
<rect width="512" height="512" fill="white"/>
</clipPath>
</defs>
</svg>
