<svg width="1024" height="1024" viewBox="0 0 1024 1024" fill="none" xmlns="http://www.w3.org/2000/svg">
<g clip-path="url(#clip0_1_2)">
<path d="M0 416C0 270.386 0 197.58 28.3383 141.962C53.2654 93.0403 93.0403 53.2654 141.962 28.3383C197.58 0 270.386 0 416 0H608C753.614 0 826.42 0 882.038 28.3383C930.96 53.2654 970.735 93.0403 995.662 141.962C1024 197.58 1024 270.386 1024 416V608C1024 753.614 1024 826.42 995.662 882.038C970.735 930.96 930.96 970.735 882.038 995.662C826.42 1024 753.614 1024 608 1024H416C270.386 1024 197.58 1024 141.962 995.662C93.0403 970.735 53.2654 930.96 28.3383 882.038C0 826.42 0 753.614 0 608V416Z" fill="url(#paint0_linear_1_2)"/>
<path d="M589.335 748.137V352.576H727.369V427.774H731.49C738.7 399.961 750.117 379.616 765.741 366.74C781.536 353.864 799.992 347.426 821.109 347.426C827.289 347.426 833.384 347.941 839.393 348.971C845.574 349.829 851.497 351.117 857.162 352.834V474.129C850.123 471.725 841.453 469.922 831.152 468.72C820.851 467.519 812.009 466.918 804.627 466.918C790.721 466.918 778.188 470.094 767.028 476.446C756.04 482.627 747.37 491.383 741.018 502.714C734.666 513.873 731.49 527.007 731.49 542.116V748.137H589.335Z" fill="white"/>
<path d="M549.032 196L379.065 827.455H258.542L428.51 196H549.032Z" fill="white"/>
<path d="M141.11 756.377C121.195 756.377 104.113 749.424 89.8627 735.518C75.7846 721.44 68.8314 704.357 69.0031 684.27C68.8314 664.698 75.7846 647.959 89.8627 634.052C104.113 620.146 121.195 613.193 141.11 613.193C159.996 613.193 176.649 620.146 191.071 634.052C205.664 647.959 213.046 664.698 213.218 684.27C213.046 697.661 209.527 709.851 202.659 720.839C195.964 731.655 187.208 740.325 176.392 746.849C165.575 753.201 153.815 756.377 141.11 756.377Z" fill="white"/>
</g>
<defs>
<linearGradient id="paint0_linear_1_2" x1="1024" y1="512" x2="0" y2="0" gradientUnits="userSpaceOnUse">
<stop stop-color="#0F0F0F"/>
<stop offset="1" stop-color="#303030"/>
</linearGradient>
<clipPath id="clip0_1_2">
<rect width="1024" height="1024" fill="white"/>
</clipPath>
</defs>
</svg>
