<svg width="48" height="48" viewBox="0 0 48 48" fill="none" xmlns="http://www.w3.org/2000/svg">
<g clip-path="url(#clip0_1_8)">
<path d="M0 19.5C0 12.6744 0 9.26154 1.32836 6.65449C2.49681 4.36127 4.36127 2.49681 6.65449 1.32836C9.26154 0 12.6744 0 19.5 0H28.5C35.3256 0 38.7385 0 41.3455 1.32836C43.6387 2.49681 45.5032 4.36127 46.6716 6.65449C48 9.26154 48 12.6744 48 19.5V28.5C48 35.3256 48 38.7385 46.6716 41.3455C45.5032 43.6387 43.6387 45.5032 41.3455 46.6716C38.7385 48 35.3256 48 28.5 48H19.5C12.6744 48 9.26154 48 6.65449 46.6716C4.36127 45.5032 2.49681 43.6387 1.32836 41.3455C0 38.7385 0 35.3256 0 28.5V19.5Z" fill="url(#paint0_linear_1_8)"/>
<path d="M27.6251 35.0689V16.527H34.0955V20.0519H34.2886C34.6266 18.7482 35.1618 17.7945 35.8941 17.1909C36.6345 16.5874 37.4996 16.2856 38.4895 16.2856C38.7792 16.2856 39.0649 16.3097 39.3466 16.358C39.6363 16.3983 39.914 16.4586 40.1795 16.5391V22.2248C39.8496 22.1121 39.4432 22.0276 38.9603 21.9713C38.4774 21.9149 38.063 21.8868 37.7169 21.8868C37.0651 21.8868 36.4776 22.0357 35.9545 22.3334C35.4394 22.6231 35.033 23.0336 34.7353 23.5647C34.4375 24.0878 34.2886 24.7035 34.2886 25.4117V35.0689H27.6251Z" fill="white"/>
<path d="M25.7358 9.1875L17.7686 38.7869H12.1191L20.0864 9.1875H25.7358Z" fill="white"/>
<path d="M6.61455 35.4552C5.68102 35.4552 4.88027 35.1293 4.21232 34.4774C3.5524 33.8175 3.22647 33.0167 3.23452 32.0752C3.22647 31.1577 3.5524 30.3731 4.21232 29.7212C4.88027 29.0693 5.68102 28.7434 6.61455 28.7434C7.4998 28.7434 8.28043 29.0693 8.95643 29.7212C9.64049 30.3731 9.98654 31.1577 9.99459 32.0752C9.98654 32.7029 9.82156 33.2743 9.49965 33.7893C9.18579 34.2963 8.77536 34.7027 8.26836 35.0085C7.76135 35.3063 7.21008 35.4552 6.61455 35.4552Z" fill="white"/>
</g>
<defs>
<linearGradient id="paint0_linear_1_8" x1="48" y1="24" x2="0" y2="0" gradientUnits="userSpaceOnUse">
<stop stop-color="#0F0F0F"/>
<stop offset="1" stop-color="#303030"/>
</linearGradient>
<clipPath id="clip0_1_8">
<rect width="48" height="48" fill="white"/>
</clipPath>
</defs>
</svg>
