<svg width="128" height="128" viewBox="0 0 128 128" fill="none" xmlns="http://www.w3.org/2000/svg">
<g clip-path="url(#clip0_1_6)">
<path d="M0 52C0 33.7983 0 24.6974 3.54229 17.7453C6.65817 11.63 11.63 6.65817 17.7453 3.54229C24.6974 0 33.7983 0 52 0H76C94.2017 0 103.303 0 110.255 3.54229C116.37 6.65817 121.342 11.63 124.458 17.7453C128 24.6974 128 33.7983 128 52V76C128 94.2017 128 103.303 124.458 110.255C121.342 116.37 116.37 121.342 110.255 124.458C103.303 128 94.2017 128 76 128H52C33.7983 128 24.6974 128 17.7453 124.458C11.63 121.342 6.65817 116.37 3.54229 110.255C0 103.303 0 94.2017 0 76V52Z" fill="url(#paint0_linear_1_6)"/>
<path d="M73.6669 93.5171V44.072H90.9211V53.4717H91.4362C92.3375 49.9951 93.7647 47.452 95.7176 45.8425C97.6919 44.233 99.9989 43.4282 102.639 43.4282C103.411 43.4282 104.173 43.4926 104.924 43.6213C105.697 43.7286 106.437 43.8896 107.145 44.1042V59.2661C106.265 58.9656 105.182 58.7403 103.894 58.5901C102.606 58.4398 101.501 58.3647 100.578 58.3647C98.8401 58.3647 97.2734 58.7617 95.8785 59.5558C94.505 60.3284 93.4213 61.4228 92.6272 62.8392C91.8332 64.2342 91.4362 65.8759 91.4362 67.7644V93.5171H73.6669Z" fill="white"/>
<path d="M68.629 24.5L47.383 103.432H32.3177L53.5637 24.5H68.629Z" fill="white"/>
<path d="M17.6388 94.5472C15.1494 94.5472 13.0141 93.678 11.2328 91.9397C9.47308 90.18 8.60393 88.0446 8.62539 85.5338C8.60393 83.0873 9.47308 80.9948 11.2328 79.2565C13.0141 77.5182 15.1494 76.6491 17.6388 76.6491C19.9995 76.6491 22.0811 77.5182 23.8838 79.2565C25.708 80.9948 26.6308 83.0873 26.6522 85.5338C26.6308 87.2077 26.1908 88.7314 25.3324 90.1048C24.4954 91.4569 23.401 92.5406 22.0489 93.3561C20.6969 94.1502 19.2269 94.5472 17.6388 94.5472Z" fill="white"/>
</g>
<defs>
<linearGradient id="paint0_linear_1_6" x1="128" y1="64" x2="0" y2="0" gradientUnits="userSpaceOnUse">
<stop stop-color="#0F0F0F"/>
<stop offset="1" stop-color="#303030"/>
</linearGradient>
<clipPath id="clip0_1_6">
<rect width="128" height="128" fill="white"/>
</clipPath>
</defs>
</svg>
