<svg width="256" height="256" viewBox="0 0 256 256" fill="none" xmlns="http://www.w3.org/2000/svg">
<g clip-path="url(#clip0_1_5)">
<path d="M0 104C0 67.5966 0 49.3949 7.08458 35.4906C13.3163 23.2601 23.2601 13.3163 35.4906 7.08458C49.3949 0 67.5966 0 104 0H152C188.403 0 206.605 0 220.509 7.08458C232.74 13.3163 242.684 23.2601 248.915 35.4906C256 49.3949 256 67.5966 256 104V152C256 188.403 256 206.605 248.915 220.509C242.684 232.74 232.74 242.684 220.509 248.915C206.605 256 188.403 256 152 256H104C67.5966 256 49.3949 256 35.4906 248.915C23.2601 242.684 13.3163 232.74 7.08458 220.509C0 206.605 0 188.403 0 152V104Z" fill="url(#paint0_linear_1_5)"/>
<path d="M147.334 187.034V88.144H181.842V106.943H182.872C184.675 99.9902 187.529 94.9041 191.435 91.685C195.384 88.4659 199.998 86.8564 205.277 86.8564C206.822 86.8564 208.346 86.9852 209.848 87.2427C211.393 87.4573 212.874 87.7792 214.291 88.2084V118.532C212.531 117.931 210.363 117.481 207.788 117.18C205.213 116.88 203.002 116.729 201.157 116.729C197.68 116.729 194.547 117.523 191.757 119.112C189.01 120.657 186.843 122.846 185.254 125.678C183.666 128.468 182.872 131.752 182.872 135.529V187.034H147.334Z" fill="white"/>
<path d="M137.258 49L94.7662 206.864H64.6356L107.127 49H137.258Z" fill="white"/>
<path d="M35.2776 189.094C30.2988 189.094 26.0281 187.356 22.4657 183.879C18.9462 180.36 17.2079 176.089 17.2508 171.068C17.2079 166.175 18.9462 161.99 22.4657 158.513C26.0281 155.036 30.2988 153.298 35.2776 153.298C39.9989 153.298 44.1623 155.036 47.7676 158.513C51.4159 161.99 53.2615 166.175 53.3045 171.068C53.2615 174.415 52.3817 177.463 50.6648 180.21C48.9909 182.914 46.8019 185.081 44.0979 186.712C41.3939 188.3 38.4538 189.094 35.2776 189.094Z" fill="white"/>
</g>
<defs>
<linearGradient id="paint0_linear_1_5" x1="256" y1="128" x2="0" y2="0" gradientUnits="userSpaceOnUse">
<stop stop-color="#0F0F0F"/>
<stop offset="1" stop-color="#303030"/>
</linearGradient>
<clipPath id="clip0_1_5">
<rect width="256" height="256" fill="white"/>
</clipPath>
</defs>
</svg>
