<svg width="16" height="16" viewBox="0 0 16 16" fill="none" xmlns="http://www.w3.org/2000/svg">
<g clip-path="url(#clip0_1_10)">
<path d="M0 6.5C0 4.22479 0 3.08718 0.442786 2.21816C0.832272 1.45376 1.45376 0.832272 2.21816 0.442786C3.08718 0 4.22479 0 6.5 0H9.5C11.7752 0 12.9128 0 13.7818 0.442786C14.5462 0.832272 15.1677 1.45376 15.5572 2.21816C16 3.08718 16 4.22479 16 6.5V9.5C16 11.7752 16 12.9128 15.5572 13.7818C15.1677 14.5462 14.5462 15.1677 13.7818 15.5572C12.9128 16 11.7752 16 9.5 16H6.5C4.22479 16 3.08718 16 2.21816 15.5572C1.45376 15.1677 0.832272 14.5462 0.442786 13.7818C0 12.9128 0 11.7752 0 9.5V6.5Z" fill="url(#paint0_linear_1_10)"/>
<path d="M9.20825 11.6896V5.509H11.365V6.68397H11.4294C11.5421 6.24939 11.7205 5.93151 11.9646 5.73032C12.2114 5.52912 12.4998 5.42853 12.8297 5.42853C12.9263 5.42853 13.0215 5.43658 13.1154 5.45267C13.212 5.46608 13.3045 5.4862 13.3931 5.51303V7.40826C13.2831 7.37071 13.1476 7.34254 12.9866 7.32376C12.8257 7.30498 12.6875 7.29559 12.5722 7.29559C12.3549 7.29559 12.1591 7.34522 11.9847 7.44448C11.813 7.54105 11.6776 7.67786 11.5783 7.85491C11.479 8.02928 11.4294 8.23449 11.4294 8.47056V11.6896H9.20825Z" fill="white"/>
<path d="M8.5787 3.0625L5.92296 12.929H4.03979L6.69554 3.0625H8.5787Z" fill="white"/>
<path d="M2.20485 11.8184C1.89367 11.8184 1.62676 11.7097 1.40411 11.4925C1.18413 11.2725 1.07549 11.0056 1.07817 10.6917C1.07549 10.3859 1.18413 10.1244 1.40411 9.90706C1.62676 9.68977 1.89367 9.58113 2.20485 9.58113C2.49993 9.58113 2.76014 9.68977 2.98548 9.90706C3.2135 10.1244 3.32885 10.3859 3.33153 10.6917C3.32885 10.901 3.27385 11.0914 3.16655 11.2631C3.06193 11.4321 2.92512 11.5676 2.75612 11.6695C2.58712 11.7688 2.40336 11.8184 2.20485 11.8184Z" fill="white"/>
</g>
<defs>
<linearGradient id="paint0_linear_1_10" x1="16" y1="8" x2="0" y2="0" gradientUnits="userSpaceOnUse">
<stop stop-color="#0F0F0F"/>
<stop offset="1" stop-color="#303030"/>
</linearGradient>
<clipPath id="clip0_1_10">
<rect width="16" height="16" fill="white"/>
</clipPath>
</defs>
</svg>
