<svg width="32" height="32" viewBox="0 0 32 32" fill="none" xmlns="http://www.w3.org/2000/svg">
<g clip-path="url(#clip0_1_9)">
<path d="M0 13C0 8.44957 0 6.17436 0.885572 4.43633C1.66454 2.90751 2.90751 1.66454 4.43633 0.885572C6.17436 0 8.44957 0 13 0H19C23.5504 0 25.8256 0 27.5637 0.885572C29.0925 1.66454 30.3355 2.90751 31.1144 4.43633C32 6.17436 32 8.44957 32 13V19C32 23.5504 32 25.8256 31.1144 27.5637C30.3355 29.0925 29.0925 30.3355 27.5637 31.1144C25.8256 32 23.5504 32 19 32H13C8.44957 32 6.17436 32 4.43633 31.1144C2.90751 30.3355 1.66454 29.0925 0.885572 27.5637C0 25.8256 0 23.5504 0 19V13Z" fill="url(#paint0_linear_1_9)"/>
<path d="M18.4167 23.3793V11.018H22.7303V13.3679H22.8591C23.0844 12.4988 23.4412 11.863 23.9294 11.4606C24.423 11.0582 24.9998 10.8571 25.6597 10.8571C25.8528 10.8571 26.0433 10.8732 26.2311 10.9053C26.4242 10.9322 26.6093 10.9724 26.7864 11.0261V14.8165C26.5664 14.7414 26.2954 14.6851 25.9735 14.6475C25.6516 14.61 25.3753 14.5912 25.1446 14.5912C24.71 14.5912 24.3184 14.6904 23.9697 14.889C23.6263 15.0821 23.3554 15.3557 23.1568 15.7098C22.9583 16.0586 22.8591 16.469 22.8591 16.9411V23.3793H18.4167Z" fill="white"/>
<path d="M17.1573 6.125L11.8458 25.858H8.07947L13.3909 6.125H17.1573Z" fill="white"/>
<path d="M4.4097 23.6368C3.78735 23.6368 3.25352 23.4195 2.80821 22.9849C2.36827 22.545 2.15098 22.0112 2.15635 21.3834C2.15098 20.7718 2.36827 20.2487 2.80821 19.8141C3.25352 19.3796 3.78735 19.1623 4.4097 19.1623C4.99987 19.1623 5.52028 19.3796 5.97096 19.8141C6.42699 20.2487 6.65769 20.7718 6.66306 21.3834C6.65769 21.8019 6.54771 22.1828 6.3331 22.5262C6.12386 22.8642 5.85024 23.1352 5.51224 23.339C5.17423 23.5375 4.80672 23.6368 4.4097 23.6368Z" fill="white"/>
</g>
<defs>
<linearGradient id="paint0_linear_1_9" x1="32" y1="16" x2="0" y2="0" gradientUnits="userSpaceOnUse">
<stop stop-color="#0F0F0F"/>
<stop offset="1" stop-color="#303030"/>
</linearGradient>
<clipPath id="clip0_1_9">
<rect width="32" height="32" fill="white"/>
</clipPath>
</defs>
</svg>
